<?xml version="1.0" encoding="utf-8"?>
<!-- Generator: Adobe Illustrator 15.1.0, SVG Export Plug-In . SVG Version: 6.00 Build 0)  -->
<!DOCTYPE svg PUBLIC "-//W3C//DTD SVG 1.1//EN" "http://www.w3.org/Graphics/SVG/1.1/DTD/svg11.dtd">
<svg version="1.1" xmlns="http://www.w3.org/2000/svg" xmlns:xlink="http://www.w3.org/1999/xlink" x="0px" y="0px" width="1960px"
	 height="1400px" viewBox="0 0 1960 1400" enable-background="new 0 0 1960 1400" xml:space="preserve">
<g id="fundo">
	<rect fill="#1F6F9C" width="1960" height="700"/>
	<rect y="700" fill="#FFFFFF" width="1960" height="700"/>
</g>
<g id="faixa">
	<path fill="#FDDF14" d="M1346.484,1141.077c-19.45-4.731-48.606-12.645-111.393-12.645c-89.563,0-113.211,21.133-255.092,21.133
		c-141.88,0-165.529-21.133-255.091-21.133c-62.784,0-91.941,7.912-111.391,12.644l-1.82-24.217c0-27.674-51.322-26.667-51.322,0
		c0,26.668,27.17,58.367,35.221,75.978c8.051,17.61,13.585,23.146,29.184,21.133c15.598-2.013,47.8,0,113.713,0
		c65.914,0,198.748,17.106,241.506,17.106c42.759,0,175.593-17.106,241.506-17.106c65.914,0,98.116-2.013,113.714,0
		s21.133-3.522,29.184-21.133c8.05-17.61,35.221-49.31,35.221-75.978c0-26.667-51.322-27.674-51.322,0l-1.819,24.217"/>
	<line fill="none" stroke="#0B592E" stroke-width="5.5" x1="611.698" y1="1116.859" x2="613.519" y2="1141.076"/>
	<path fill="none" stroke="#0B592E" stroke-width="5.5" d="M1395.131,1137.807c0,0-5.066,6.727-27.206,6.727
		c-22.139,0-43.271-16.101-132.833-16.101c-89.563,0-113.211,21.133-255.092,21.133c-141.88,0-165.529-21.133-255.091-21.133
		c-89.563,0-110.695,16.101-132.834,16.101c-22.139,0-27.208-6.727-27.208-6.727"/>
	<line fill="none" stroke="#0B592E" stroke-width="5.5" x1="1348.302" y1="1116.859" x2="1346.482" y2="1141.076"/>
	<path fill="none" stroke="#0B592E" stroke-width="5.5" d="M1370.923,1144.486l2.537-19.576
		c-12.579,1.007-25.158-3.521-25.158-8.051c0-27.674,51.322-26.667,51.322,0c0,26.668-27.171,58.367-35.221,75.978
		c-8.051,17.61-13.586,23.146-29.184,21.133s-47.8,0-113.714,0c-65.913,0-198.747,17.106-241.506,17.106
		c-42.758,0-175.592-17.106-241.506-17.106c-65.914,0-98.116-2.013-113.713,0c-15.598,2.013-21.133-3.522-29.184-21.133
		c-8.05-17.61-35.221-49.31-35.221-75.978c0-26.667,51.322-27.674,51.322,0c0,4.529-12.579,9.058-25.158,8.051l2.538,19.576"/>
	<g>
		<path fill="#0B592E" d="M625.183,1180.421l0.856,14.107c0.167,2.752,0.385,4.477,0.654,5.176c0.269,0.699,0.706,1.244,1.309,1.634
			c0.604,0.391,1.675,0.539,3.215,0.445l0.084,1.389l-17.303,1.05l-0.084-1.389c1.574-0.095,2.627-0.379,3.162-0.851
			c0.534-0.472,0.893-1.064,1.077-1.778s0.192-2.447,0.025-5.199l-2.003-33.018c-0.167-2.751-0.385-4.477-0.654-5.176
			c-0.27-0.699-0.702-1.244-1.297-1.635c-0.595-0.391-1.671-0.539-3.228-0.444l-0.084-1.389l14.842-0.9
			c4.888-0.297,8.475,0.791,10.759,3.264c2.284,2.473,3.544,5.659,3.781,9.562c0.2,3.302-0.315,6.171-1.545,8.604
			c-1.23,2.436-3.025,4.151-5.384,5.147C631.778,1179.719,629.051,1180.186,625.183,1180.421z M623.671,1155.507l1.334,21.987
			c0.556,0.017,0.976,0.016,1.26-0.001c2.042-0.124,3.562-1.126,4.557-3.007c0.995-1.881,1.377-4.722,1.146-8.524
			c-0.229-3.776-0.949-6.507-2.16-8.191c-1.211-1.684-2.914-2.459-5.107-2.326L623.671,1155.507z"/>
		<path fill="#0B592E" d="M659.88,1187.681l-12.048,0.279l-1.318,4.994c-0.432,1.664-0.634,3.035-0.609,4.112
			c0.033,1.428,0.443,2.472,1.23,3.13c0.462,0.391,1.584,0.665,3.366,0.824l0.032,1.391l-11.344,0.263l-0.032-1.39
			c1.217-0.304,2.206-1.086,2.966-2.344c0.759-1.259,1.672-3.843,2.739-7.753l11.255-40.944l0.478-0.011l13.27,41.503
			c1.266,3.932,2.288,6.401,3.066,7.411c0.588,0.764,1.403,1.195,2.446,1.297l0.032,1.39l-16.5,0.384l-0.032-1.391l0.679-0.016
			c1.324-0.031,2.249-0.328,2.772-0.892c0.359-0.409,0.531-0.99,0.513-1.741c-0.01-0.451-0.071-0.913-0.183-1.388
			c-0.039-0.225-0.312-1.158-0.82-2.801L659.88,1187.681z M658.96,1184.92l-5.488-17.432l-4.824,17.671L658.96,1184.92z"/>
		<path fill="#0B592E" d="M704.33,1150.673l0.013,1.391c-1.239,0.313-2.336,1.313-3.293,3.001c-0.693,1.26-1.714,4.214-3.063,8.862
			l-11.388,39.05l-0.831,0.008l-12.074-40.411c-1.455-4.874-2.424-7.734-2.911-8.582c-0.486-0.847-1.393-1.378-2.719-1.591
			l-0.013-1.391l16.354-0.151l0.013,1.391l-0.553,0.005c-1.476,0.014-2.48,0.299-3.012,0.854c-0.382,0.38-0.57,0.933-0.563,1.659
			c0.004,0.451,0.076,0.983,0.216,1.596c0.14,0.613,0.608,2.257,1.404,4.931l7.506,25.305l6.533-22.653
			c0.78-2.738,1.257-4.572,1.434-5.502c0.176-0.928,0.261-1.719,0.254-2.37c-0.007-0.752-0.147-1.414-0.421-1.988
			c-0.274-0.574-0.672-1.009-1.195-1.305c-0.725-0.419-1.683-0.624-2.874-0.612l-0.013-1.391L704.33,1150.673z"/>
		<path fill="#0B592E" d="M736.729,1183.728l-1.258,17.895l-30.292,0.042l-0.002-1.392l1.132-0.001
			c0.989-0.002,1.786-0.266,2.389-0.793c0.436-0.352,0.77-0.953,1.004-1.806c0.184-0.602,0.273-2.181,0.27-4.736l-0.046-33.53
			c-0.004-2.605-0.099-4.234-0.284-4.886c-0.186-0.651-0.56-1.221-1.122-1.709c-0.563-0.488-1.322-0.731-2.278-0.729l-1.132,0.001
			l-0.002-1.391l18.19-0.025l0.002,1.391l-1.484,0.003c-0.99,0.001-1.786,0.266-2.389,0.792c-0.436,0.353-0.778,0.954-1.029,1.806
			c-0.184,0.602-0.274,2.181-0.27,4.737l0.045,32.477c0.003,2.607,0.106,4.267,0.309,4.98c0.203,0.714,0.597,1.246,1.185,1.596
			c0.419,0.226,1.435,0.337,3.045,0.334l2.843-0.004c1.812-0.002,3.32-0.48,4.527-1.435c1.207-0.953,2.249-2.459,3.126-4.515
			c0.878-2.056,1.708-5.09,2.491-9.101L736.729,1183.728z"/>
		<path fill="#0B592E" d="M756.051,1200.806l-0.044,1.391l-17.829-0.563l0.043-1.39l1.132,0.035
			c0.989,0.031,1.793-0.206,2.414-0.714c0.447-0.336,0.801-0.927,1.063-1.771c0.203-0.595,0.345-2.17,0.426-4.725l1.056-33.514
			c0.082-2.604,0.041-4.235-0.123-4.893s-0.519-1.239-1.065-1.745c-0.546-0.506-1.297-0.774-2.253-0.804l-1.131-0.036l0.043-1.39
			l17.83,0.562l-0.044,1.39l-1.131-0.035c-0.989-0.031-1.794,0.207-2.414,0.714c-0.447,0.337-0.81,0.928-1.088,1.771
			c-0.204,0.596-0.345,2.171-0.426,4.726l-1.056,33.513c-0.083,2.605-0.037,4.236,0.135,4.894c0.172,0.657,0.531,1.239,1.078,1.745
			c0.546,0.506,1.297,0.774,2.253,0.805L756.051,1200.806z"/>
		<path fill="#0B592E" d="M782.939,1151.467l-0.689,16.979l-1.03-0.059c-0.244-4.28-1.243-7.77-2.996-10.468
			c-1.753-2.697-3.735-4.108-5.946-4.234c-1.708-0.098-3.099,0.508-4.173,1.814c-1.074,1.307-1.662,2.849-1.763,4.625
			c-0.064,1.125,0.055,2.137,0.356,3.032c0.419,1.203,1.131,2.411,2.138,3.623c0.74,0.87,2.474,2.438,5.201,4.701
			c3.819,3.153,6.349,6.071,7.591,8.752c1.225,2.681,1.742,5.697,1.551,9.049c-0.242,4.254-1.56,7.85-3.953,10.788
			c-2.394,2.938-5.298,4.311-8.714,4.116c-1.072-0.061-2.076-0.281-3.012-0.66c-0.936-0.38-2.099-1.061-3.487-2.044
			c-0.775-0.546-1.423-0.834-1.942-0.863c-0.436-0.024-0.91,0.199-1.424,0.672c-0.515,0.474-0.951,1.213-1.311,2.223l-0.929-0.054
			l1.093-19.214l0.929,0.053c0.429,5.445,1.614,9.648,3.554,12.607c1.94,2.96,4.124,4.508,6.552,4.646
			c1.875,0.106,3.414-0.571,4.614-2.034c1.2-1.463,1.858-3.208,1.974-5.234c0.068-1.2-0.079-2.376-0.442-3.526
			c-0.363-1.15-0.952-2.257-1.764-3.319c-0.813-1.063-2.279-2.47-4.397-4.223c-2.969-2.452-5.085-4.519-6.351-6.197
			c-1.266-1.678-2.206-3.526-2.822-5.544c-0.616-2.018-0.856-4.215-0.721-6.593c0.231-4.053,1.423-7.448,3.579-10.188
			c2.155-2.738,4.748-4.021,7.779-3.85c1.105,0.063,2.166,0.324,3.181,0.783c0.77,0.346,1.697,0.957,2.781,1.834
			c1.084,0.878,1.852,1.329,2.304,1.354c0.436,0.025,0.79-0.155,1.064-0.542c0.274-0.385,0.563-1.335,0.868-2.85L782.939,1151.467z"
			/>
		<path fill="#0B592E" d="M819.428,1155.314l-1.04,13.757l-0.903-0.068c-0.295-3.214-0.717-5.539-1.264-6.976
			c-0.547-1.436-1.359-2.609-2.434-3.52c-0.602-0.498-1.697-0.808-3.286-0.928l-2.534-0.191l-2.963,39.207
			c-0.196,2.6-0.223,4.23-0.08,4.895c0.143,0.665,0.477,1.261,1,1.791c0.523,0.529,1.271,0.831,2.241,0.904l1.129,0.085
			l-0.105,1.387l-17.813-1.346l0.104-1.387l1.129,0.085c0.987,0.075,1.801-0.128,2.443-0.606c0.461-0.317,0.85-0.891,1.165-1.722
			c0.229-0.586,0.44-2.153,0.633-4.702l2.963-39.207l-2.458-0.186c-2.292-0.173-4.011,0.426-5.157,1.797
			c-1.608,1.914-2.747,4.73-3.414,8.45l-0.954-0.072l1.04-13.757L819.428,1155.314z"/>
		<path fill="#0B592E" d="M835.067,1193.271l-12.007-1.033l-1.854,4.82c-0.61,1.607-0.96,2.949-1.053,4.022
			c-0.122,1.423,0.172,2.504,0.882,3.245c0.417,0.438,1.502,0.833,3.257,1.186l-0.119,1.386l-11.306-0.974l0.12-1.386
			c1.243-0.169,2.311-0.838,3.203-2.007c0.892-1.168,2.081-3.637,3.567-7.408l15.645-39.476l0.476,0.041l8.674,42.7
			c0.83,4.046,1.577,6.613,2.241,7.701c0.501,0.823,1.265,1.342,2.291,1.556l-0.119,1.386l-16.444-1.416l0.119-1.386l0.677,0.059
			c1.32,0.113,2.271-0.081,2.854-0.584c0.402-0.368,0.635-0.927,0.7-1.676c0.039-0.449,0.028-0.915-0.031-1.398
			c-0.014-0.228-0.184-1.186-0.51-2.874L835.067,1193.271z M834.454,1190.426l-3.559-17.925l-6.719,17.04L834.454,1190.426z"/>
		<path fill="#0B592E" d="M864.176,1187.116l-1.303,14.224c-0.251,2.746-0.297,4.484-0.137,5.216
			c0.161,0.732,0.505,1.336,1.034,1.813s1.57,0.785,3.124,0.928l-0.127,1.385l-17.388-1.593l0.127-1.385
			c1.57,0.144,2.654,0.023,3.254-0.362c0.599-0.385,1.044-0.917,1.333-1.596c0.29-0.678,0.56-2.389,0.812-5.135l3.017-32.94
			c0.251-2.745,0.297-4.483,0.137-5.216c-0.16-0.731-0.505-1.335-1.034-1.812s-1.57-0.786-3.124-0.929l0.127-1.385l15.785,1.446
			c4.109,0.376,7.077,1.076,8.903,2.099c1.826,1.022,3.236,2.73,4.23,5.124c0.993,2.394,1.35,5.125,1.068,8.195
			c-0.343,3.743-1.528,6.755-3.556,9.035c-1.294,1.442-3.013,2.455-5.154,3.038l6.594,17.93c0.865,2.319,1.499,3.774,1.899,4.364
			c0.614,0.836,1.369,1.333,2.264,1.49l-0.127,1.386l-10.698-0.98l-8.831-24.136L864.176,1187.116z M866.456,1162.223l-2.036,22.235
			l1.428,0.131c2.321,0.213,4.088,0.054,5.299-0.478c1.21-0.53,2.222-1.595,3.034-3.194c0.812-1.599,1.34-3.733,1.584-6.404
			c0.354-3.867,0.01-6.78-1.031-8.738c-1.042-1.957-2.908-3.06-5.597-3.306L866.456,1162.223z"/>
		<path fill="#0B592E" d="M923.78,1164.704l-0.126,1.385c-1.263,0.188-2.455,1.073-3.576,2.657c-0.814,1.185-2.125,4.022-3.93,8.514
			l-15.219,37.722l-0.827-0.074l-7.992-41.413c-0.962-4.994-1.642-7.937-2.042-8.828c-0.399-0.892-1.249-1.51-2.547-1.854
			l0.125-1.385l16.287,1.478l-0.125,1.385l-0.551-0.05c-1.47-0.134-2.498,0.051-3.082,0.551c-0.418,0.339-0.66,0.871-0.726,1.595
			c-0.041,0.449-0.022,0.985,0.056,1.609s0.38,2.306,0.907,5.045l4.95,25.927l8.756-21.891c1.048-2.646,1.707-4.424,1.974-5.331
			c0.267-0.906,0.431-1.685,0.489-2.334c0.068-0.748-0.006-1.422-0.221-2.021c-0.215-0.598-0.568-1.07-1.059-1.417
			c-0.68-0.489-1.613-0.787-2.798-0.896l0.125-1.385L923.78,1164.704z"/>
		<path fill="#0B592E" d="M944.282,1200.079l11.784-32.805l13.848,1.055l-0.106,1.387l-1.104-0.084
			c-1.004-0.076-1.827,0.125-2.469,0.604c-0.445,0.318-0.824,0.88-1.137,1.686c-0.23,0.585-0.441,2.141-0.633,4.664l-2.552,33.508
			c-0.198,2.599-0.23,4.229-0.095,4.894c0.134,0.664,0.467,1.261,0.999,1.791c0.531,0.53,1.274,0.832,2.228,0.905l1.104,0.084
			l-0.105,1.387l-17.762-1.354l0.105-1.387l1.104,0.084c1.003,0.077,1.826-0.124,2.468-0.604c0.444-0.317,0.825-0.892,1.141-1.723
			c0.229-0.585,0.441-2.152,0.635-4.701l2.869-37.668l-16.577,45.37l-0.602-0.046l-9.74-47.036l-2.727,35.795
			c-0.19,2.499-0.266,4.039-0.226,4.619c0.122,1.267,0.517,2.32,1.185,3.163c0.667,0.843,1.779,1.323,3.334,1.441l-0.106,1.387
			l-11.64-0.887l0.105-1.387l0.351,0.027c0.751,0.082,1.467-0.046,2.149-0.384c0.682-0.337,1.214-0.817,1.599-1.442
			c0.384-0.624,0.712-1.516,0.986-2.677c0.054-0.272,0.168-1.545,0.341-3.819l2.449-32.158c0.196-2.573,0.227-4.187,0.091-4.838
			c-0.136-0.651-0.469-1.242-1-1.772c-0.532-0.53-1.274-0.832-2.228-0.904l-1.079-0.083l0.105-1.387l13.898,1.059L944.282,1200.079z
			"/>
		<path fill="#0B592E" d="M1010.603,1166.92l0.771,13.774l-0.905,0.051c-0.713-3.147-1.436-5.397-2.166-6.75
			s-1.688-2.409-2.874-3.171c-0.661-0.415-1.788-0.578-3.379-0.489l-2.537,0.142l2.195,39.258c0.146,2.603,0.333,4.224,0.562,4.862
			c0.229,0.641,0.638,1.188,1.227,1.645c0.588,0.457,1.367,0.658,2.339,0.604l1.131-0.063l0.077,1.389l-17.835,0.998l-0.078-1.389
			l1.131-0.063c0.987-0.056,1.769-0.362,2.342-0.922c0.416-0.374,0.726-0.994,0.93-1.858c0.15-0.611,0.154-2.192,0.012-4.745
			l-2.195-39.257l-2.462,0.138c-2.294,0.128-3.92,0.947-4.877,2.456c-1.344,2.108-2.104,5.05-2.278,8.824l-0.955,0.054
			l-0.771-13.774L1010.603,1166.92z"/>
		<path fill="#0B592E" d="M1024.637,1168.603l1.735,20.677l0.677-0.057c2.156-0.182,3.634-1.324,4.434-3.428
			c0.8-2.104,1.168-5.14,1.104-9.108l0.953-0.08l2.231,26.596l-0.953,0.079c-0.443-2.879-1.064-5.216-1.863-7.011
			c-0.799-1.793-1.65-2.973-2.557-3.538c-0.905-0.565-2.17-0.78-3.791-0.644l1.201,14.309c0.234,2.797,0.457,4.501,0.669,5.111
			c0.211,0.611,0.551,1.099,1.019,1.461c0.468,0.363,1.187,0.504,2.156,0.423l2.031-0.17c3.176-0.267,5.628-1.579,7.357-3.938
			c1.729-2.357,2.823-5.819,3.282-10.385l0.928-0.078l-0.175,16.273l-29.384,2.466l-0.116-1.387l1.128-0.094
			c0.986-0.083,1.758-0.412,2.315-0.987c0.405-0.386,0.689-1.013,0.853-1.882c0.133-0.614,0.093-2.195-0.121-4.743l-2.804-33.412
			c-0.192-2.297-0.353-3.705-0.48-4.222c-0.24-0.86-0.606-1.509-1.097-1.945c-0.694-0.646-1.593-0.923-2.696-0.83l-1.128,0.095
			l-0.116-1.386l28.456-2.388l1.261,15.021l-0.953,0.08c-0.793-3.631-1.694-6.208-2.706-7.732s-2.352-2.595-4.019-3.209
			c-0.974-0.371-2.748-0.448-5.321-0.232L1024.637,1168.603z"/>
		<path fill="#0B592E" d="M1059.322,1190.463l1.302,14.225c0.251,2.746,0.521,4.463,0.813,5.154c0.29,0.69,0.738,1.222,1.346,1.594
			c0.606,0.373,1.687,0.487,3.24,0.346l0.127,1.385l-17.389,1.591l-0.127-1.385c1.57-0.145,2.615-0.46,3.135-0.948
			c0.52-0.487,0.86-1.091,1.021-1.811c0.162-0.719,0.117-2.451-0.134-5.196l-3.014-32.941c-0.251-2.745-0.521-4.463-0.813-5.153
			c-0.291-0.691-0.739-1.222-1.346-1.595c-0.607-0.372-1.688-0.487-3.24-0.345l-0.127-1.386l15.785-1.443
			c4.108-0.376,7.154-0.227,9.136,0.447c1.982,0.675,3.679,2.098,5.09,4.271c1.412,2.174,2.258,4.795,2.539,7.864
			c0.343,3.743-0.276,6.921-1.856,9.531c-1.012,1.653-2.518,2.961-4.518,3.924l9.74,16.435c1.271,2.123,2.158,3.438,2.66,3.946
			c0.755,0.711,1.588,1.063,2.496,1.055l0.127,1.385l-10.698,0.979l-13.065-22.133L1059.322,1190.463z M1057.045,1165.57
			l2.034,22.235l1.429-0.131c2.321-0.212,4.029-0.689,5.124-1.432c1.094-0.741,1.895-1.972,2.403-3.692
			c0.508-1.72,0.64-3.914,0.396-6.585c-0.354-3.868-1.221-6.67-2.601-8.406c-1.38-1.735-3.415-2.48-6.104-2.234L1057.045,1165.57z"
			/>
		<path fill="#0B592E" d="M1095.324,1187.159l1.291,14.226c0.249,2.745,0.519,4.463,0.809,5.153c0.29,0.691,0.738,1.224,1.345,1.596
			c0.606,0.373,1.687,0.488,3.24,0.348l0.126,1.385l-17.39,1.579l-0.126-1.386c1.57-0.143,2.615-0.457,3.136-0.945
			c0.52-0.486,0.86-1.091,1.022-1.81s0.119-2.451-0.13-5.197l-2.99-32.943c-0.249-2.745-0.519-4.463-0.809-5.154
			c-0.29-0.69-0.739-1.222-1.345-1.595c-0.607-0.373-1.687-0.488-3.24-0.348l-0.126-1.385l15.786-1.434
			c4.109-0.373,7.154-0.221,9.136,0.454c1.981,0.676,3.677,2.102,5.087,4.275c1.41,2.175,2.254,4.797,2.533,7.866
			c0.34,3.744-0.281,6.92-1.863,9.529c-1.013,1.652-2.52,2.96-4.521,3.921l9.729,16.441c1.271,2.125,2.156,3.44,2.657,3.948
			c0.755,0.712,1.587,1.064,2.496,1.057l0.125,1.386l-10.699,0.971l-13.05-22.142L1095.324,1187.159z M1093.064,1162.265
			l2.019,22.236l1.428-0.13c2.322-0.211,4.03-0.687,5.126-1.428c1.095-0.74,1.896-1.971,2.405-3.69c0.51-1.72,0.643-3.914,0.4-6.585
			c-0.351-3.868-1.216-6.671-2.595-8.408c-1.379-1.736-3.413-2.483-6.102-2.239L1093.064,1162.265z"/>
		<path fill="#0B592E" d="M1139.891,1192.001l-12.01,1.004l-1.017,5.063c-0.33,1.688-0.45,3.068-0.36,4.142
			c0.118,1.424,0.591,2.44,1.416,3.051c0.484,0.362,1.621,0.568,3.409,0.62l0.116,1.386l-11.308,0.945l-0.116-1.387
			c1.197-0.376,2.137-1.216,2.819-2.518s1.438-3.936,2.269-7.903l8.774-41.546l0.477-0.04l15.74,40.63
			c1.499,3.849,2.668,6.253,3.506,7.214c0.633,0.727,1.473,1.109,2.52,1.147l0.116,1.386l-16.448,1.374l-0.115-1.386l0.677-0.057
			c1.32-0.11,2.225-0.462,2.714-1.057c0.335-0.43,0.471-1.021,0.408-1.77c-0.038-0.449-0.126-0.907-0.267-1.373
			c-0.053-0.222-0.381-1.138-0.986-2.747L1139.891,1192.001z M1138.806,1189.301l-6.525-17.07l-3.754,17.929L1138.806,1189.301z"/>
		<path fill="#0B592E" d="M1187.942,1185.675l7.302-34.084l13.865-0.802l0.08,1.388l-1.104,0.064
			c-1.005,0.058-1.794,0.367-2.366,0.928c-0.398,0.375-0.699,0.981-0.902,1.821c-0.149,0.611-0.151,2.181-0.005,4.707l1.941,33.549
			c0.15,2.603,0.336,4.223,0.559,4.862c0.222,0.641,0.631,1.188,1.229,1.643c0.597,0.455,1.373,0.654,2.327,0.6l1.105-0.064
			l0.08,1.389l-17.783,1.029l-0.08-1.389l1.105-0.063c1.004-0.059,1.793-0.368,2.365-0.928c0.398-0.375,0.698-0.994,0.9-1.859
			c0.149-0.611,0.15-2.192,0.003-4.745l-2.183-37.714l-10.375,47.177l-0.603,0.034l-15.929-45.315l2.073,35.838
			c0.145,2.502,0.275,4.038,0.393,4.609c0.29,1.238,0.822,2.229,1.597,2.976c0.773,0.746,1.939,1.074,3.497,0.984l0.08,1.388
			l-11.654,0.675l-0.081-1.389l0.352-0.021c0.755-0.019,1.448-0.24,2.079-0.666c0.63-0.425,1.094-0.973,1.392-1.643
			c0.297-0.67,0.504-1.598,0.62-2.785c0.018-0.276-0.04-1.554-0.171-3.83l-1.863-32.198c-0.149-2.576-0.335-4.179-0.556-4.807
			c-0.222-0.627-0.631-1.168-1.228-1.623c-0.598-0.455-1.374-0.654-2.328-0.6l-1.08,0.063l-0.081-1.388l13.916-0.806
			L1187.942,1185.675z"/>
		<path fill="#0B592E" d="M1232.693,1187.127l-12.052-0.004l-1.436,4.961c-0.47,1.654-0.705,3.021-0.705,4.098
			c-0.001,1.429,0.385,2.48,1.156,3.158c0.452,0.4,1.567,0.702,3.346,0.902v1.391l-11.348-0.003l0.001-1.391
			c1.224-0.275,2.23-1.033,3.02-2.273c0.788-1.24,1.763-3.802,2.921-7.687l12.214-40.668h0.479l12.291,41.804
			c1.173,3.96,2.137,6.453,2.891,7.48c0.57,0.777,1.375,1.229,2.415,1.354v1.391l-16.505-0.005v-1.391h0.68
			c1.325,0,2.256-0.274,2.793-0.826c0.369-0.4,0.554-0.978,0.554-1.729c0-0.451-0.05-0.915-0.15-1.392
			c-0.033-0.226-0.285-1.165-0.754-2.819L1232.693,1187.127z M1231.839,1184.345l-5.077-17.556l-5.238,17.553L1231.839,1184.345z"/>
		<path fill="#0B592E" d="M1276.307,1150.834l-0.078,13.796l-0.906-0.006c-0.519-3.185-1.101-5.476-1.747-6.87
			s-1.537-2.509-2.673-3.342c-0.635-0.455-1.749-0.687-3.343-0.695l-2.541-0.015l-0.225,39.317
			c-0.015,2.606,0.072,4.236,0.262,4.889c0.188,0.652,0.563,1.225,1.122,1.717c0.56,0.491,1.325,0.74,2.298,0.746l1.133,0.006
			l-0.008,1.392l-17.863-0.103l0.008-1.391l1.132,0.007c0.989,0.005,1.788-0.253,2.395-0.776c0.438-0.348,0.785-0.947,1.042-1.798
			c0.188-0.601,0.289-2.179,0.304-4.735l0.225-39.317l-2.466-0.015c-2.298-0.013-3.971,0.705-5.019,2.152
			c-1.472,2.021-2.41,4.91-2.817,8.667l-0.956-0.006l0.079-13.795L1276.307,1150.834z"/>
		<path fill="#0B592E" d="M1291.601,1153.988l-0.37,20.746l0.68,0.013c2.163,0.038,3.749-0.948,4.758-2.961
			c1.009-2.012,1.683-4.994,2.021-8.949l0.956,0.018l-0.475,26.684l-0.956-0.017c-0.149-2.91-0.531-5.298-1.144-7.163
			c-0.612-1.866-1.341-3.126-2.185-3.78s-2.079-0.995-3.706-1.024l-0.256,14.356c-0.05,2.807-0.001,4.524,0.147,5.153
			c0.148,0.63,0.437,1.148,0.865,1.557c0.429,0.409,1.13,0.622,2.103,0.64l2.038,0.036c3.186,0.057,5.759-1,7.719-3.171
			c1.959-2.171,3.398-5.504,4.317-9.999l0.931,0.017l-1.823,16.171l-29.482-0.524l0.025-1.391l1.132,0.02
			c0.989,0.019,1.79-0.23,2.403-0.746c0.442-0.343,0.788-0.938,1.039-1.786c0.194-0.598,0.315-2.175,0.36-4.73l0.598-33.524
			c0.041-2.306,0.023-3.722-0.051-4.249c-0.152-0.88-0.45-1.563-0.895-2.047c-0.625-0.712-1.49-1.079-2.598-1.099l-1.132-0.021
			l0.024-1.391l28.553,0.509l-0.269,15.071l-0.956-0.018c-0.421-3.691-1.058-6.347-1.909-7.966s-2.076-2.819-3.673-3.6
			c-0.932-0.468-2.688-0.725-5.271-0.771L1291.601,1153.988z"/>
		<path fill="#0B592E" d="M1324.485,1179.694l-0.756,14.264c-0.146,2.753-0.125,4.491,0.063,5.217s0.556,1.315,1.103,1.771
			s1.6,0.725,3.157,0.807l-0.073,1.39l-17.437-0.925l0.073-1.389c1.574,0.083,2.653-0.079,3.238-0.487
			c0.584-0.408,1.008-0.956,1.271-1.646c0.263-0.688,0.468-2.409,0.614-5.162l1.751-33.032c0.146-2.752,0.125-4.491-0.063-5.217
			s-0.556-1.315-1.103-1.771c-0.547-0.455-1.6-0.725-3.157-0.807l0.073-1.39l15.829,0.84c4.12,0.219,7.112,0.804,8.977,1.756
			s3.339,2.604,4.424,4.959c1.085,2.354,1.545,5.069,1.382,8.147c-0.199,3.753-1.268,6.809-3.207,9.165
			c-1.238,1.49-2.916,2.568-5.034,3.233l7.277,17.664c0.953,2.284,1.643,3.714,2.065,4.288c0.646,0.812,1.418,1.279,2.319,1.402
			l-0.074,1.389l-10.728-0.568l-9.75-23.78L1324.485,1179.694z M1325.81,1154.732l-1.183,22.297l1.433,0.075
			c2.327,0.124,4.087-0.103,5.276-0.68s2.159-1.68,2.909-3.309s1.195-3.782,1.338-6.46c0.205-3.879-0.25-6.776-1.366-8.692
			s-3.022-2.946-5.719-3.089L1325.81,1154.732z"/>
	</g>
</g>
<g id="escudo">
	<path fill="#FDDF14" d="M745.451,461.33v536.354c0,18.385,14.903,33.286,33.286,33.286H956.09c13.205,0,23.91,10.705,23.91,23.91
		c0-13.205,10.706-23.91,23.91-23.91h177.354c18.385,0,33.287-14.901,33.287-33.286V461.33H745.451z"/>
	<path fill="#0A9B4A" stroke="#0F331B" stroke-width="2" d="M1214.551,461.33h-53.721L980,676.764L799.169,461.33h-53.719v98.682
		l166.274,198.094L745.451,956.198v41.486c0,18.385,14.903,33.286,33.286,33.286h40.502L980,839.445l160.761,191.525h40.503
		c18.385,0,33.287-14.901,33.287-33.286v-41.487l-166.274-198.092l166.274-198.094V461.33z"/>
	<path fill="none" stroke="#0F331B" stroke-width="5.5" d="M745.451,461.33v536.354c0,18.385,14.903,33.286,33.286,33.286H956.09
		c13.205,0,23.91,10.705,23.91,23.91c0-13.205,10.706-23.91,23.91-23.91h177.354c18.385,0,33.287-14.901,33.287-33.286V461.33
		H745.451z"/>
</g>
<g id="coroamuro">
	<path fill="#D9D8D8" stroke="#262626" stroke-width="4" d="M985.293,260.484v-15.346l23.9,0.817v14.529l10.566,0.755l2.516-14.592
		l26.919,1.761l1.006-14.843l-4.025-2.013l2.013-23.397l-17.023-28.344l1.31-10.889l17.892,2.625l-0.88,5.92l9.645,1.674
		l0.882-6.082l17.233,2.39l-0.881,6.541l14.397,2.117l0.949-6.645l15.347,2.013l-0.504,7.295l13.586,2.516l0.946-7.806l18.425,3.026
		v8.302l-23.396,22.894l-3.271,22.391l-3.773,1.006l-1.007,17.611l14.34,3.019v11.321l13.418,5.703l1.341-14.76l26.164,6.038
		l-1.006,15.431l13.418,3.019l1.342-15.766l21.804,4.36l-2.349,15.766l15.095,4.697l6.038-14.76l23.816,11.741l14.76-27.507v-17.777
		l-9.394-20.798v-10.734l21.972,2.013l-2.264,10.063l12.076,6.289l8.134-10.649l11.74,5.703l-3.019,13.082l11.404,6.708l7.38-11.069
		l16.101,9.728l-14.088,19.791l-26.165,21.803l-66.417,107.005c0,0,7.381,4.36,2.35,13.752c-5.032,9.393-17.444,4.025-17.444,4.025
		l-4.69,11.06c14.315,7.639,16.904,27.358-9.731,17.789c-29.52-10.607-104.657-39.582-214.188-39.582
		c-109.53,0-184.669,28.975-214.187,39.582c-26.636,9.57-24.048-10.15-9.733-17.789l-4.69-11.06c0,0-12.412,5.368-17.443-4.025
		c-5.032-9.392,2.349-13.752,2.349-13.752l-66.417-107.005l-26.164-21.803l-14.088-19.791l16.101-9.728l7.379,11.069l11.404-6.708
		l-3.019-13.082l11.74-5.703l8.134,10.649l12.076-6.289l-2.264-10.063l21.972-2.013v10.734l-9.393,20.798v17.777l14.76,27.507
		l23.816-11.741l6.038,14.76l15.095-4.697l-2.349-15.766l21.804-4.36l1.342,15.766l13.418-3.019l-1.006-15.431l26.165-6.038
		l1.341,14.76l13.417-5.703v-11.321l14.34-3.019L850.93,239.1l-3.774-1.006l-3.271-22.391l-23.397-22.894v-8.302l18.425-3.026
		l0.946,7.806l13.585-2.516l-0.503-7.295l15.346-2.013l0.949,6.645l14.397-2.117l-0.88-6.541l17.233-2.39l0.883,6.082l9.646-1.674
		l-0.882-5.92l17.892-2.625l1.31,10.889l-17.024,28.344l2.013,23.397l-4.025,2.013l1.006,14.843l26.919-1.761l2.516,14.592
		l10.566-0.755v-14.529l23.9-0.817v15.346H985.293z"/>
	<path fill="none" stroke="#262626" stroke-width="3.5" d="M772.42,383.104c0,0-27.063-50.509-71.68-44.215"/>
	<line fill="none" stroke="#262626" stroke-width="3.5" x1="718.516" y1="292.52" x2="802.812" y2="373.36"/>
	<path fill="none" stroke="#262626" stroke-width="3.5" d="M643.713,267.361c0,0,28.82-17.504,63.049-26.782"/>
	<path fill="none" stroke="#262626" stroke-width="3.5" d="M669.877,289.165c0,0,15.976-10.839,38.261-15.985"/>
	<path fill="none" stroke="#262626" stroke-width="3.5" d="M662.603,283.102c0,0,17.505-12.051,41.154-18.089"/>
	<path fill="none" stroke="#262626" stroke-width="3.5" d="M720.486,294.408c0,0-21.299,8.471-35.786,18.638"/>
	<line fill="none" stroke="#262626" stroke-width="3.5" x1="851.937" y1="256.711" x2="851.937" y2="360.725"/>
	<line fill="none" stroke="#262626" stroke-width="3.5" x1="910.806" y1="247.402" x2="950.807" y2="346.524"/>
	<line fill="none" stroke="#262626" stroke-width="3.5" x1="843.886" y1="215.703" x2="911.812" y2="208.156"/>
	<line fill="none" stroke="#262626" stroke-width="3.5" x1="845.429" y1="226.265" x2="912.84" y2="219.612"/>
	<line fill="none" stroke="#262626" stroke-width="3.5" x1="850.93" y1="239.1" x2="909.8" y2="233.565"/>
	<line fill="none" stroke="#262626" stroke-width="3.5" x1="870.115" y1="237.297" x2="874.206" y2="355.83"/>
	<path fill="none" stroke="#262626" stroke-width="3.5" d="M925.198,348.772c0,0-23.198-78.225-27.223-92.061
		c-4.025-13.837-4.368-21.623-4.368-21.623"/>
	<line fill="none" stroke="#262626" stroke-width="3.5" x1="851.937" y1="259.729" x2="911.812" y2="249.896"/>
	<path fill="none" stroke="#262626" stroke-width="3.5" d="M874.206,355.83c-2.483-71.951,30.432-76.49,50.992-7.058"/>
	<path fill="none" stroke="#262626" stroke-width="3.5" d="M872.622,309.954c-36.485,6.95-80.945,18.263-135.198,36.57"/>
	<path fill="none" stroke="#262626" stroke-width="3.5" d="M873.274,328.846c-35.48,6.507-75.621,17.086-115.632,34.205"/>
	<line fill="none" stroke="#262626" stroke-width="3.5" x1="768.973" y1="358.376" x2="788.164" y2="377.904"/>
	<line fill="none" stroke="#262626" stroke-width="3.5" x1="751.389" y1="341.896" x2="730.966" y2="322.369"/>
	<line fill="none" stroke="#262626" stroke-width="3.5" x1="704.911" y1="301.422" x2="689.007" y2="279.326"/>
	<line fill="none" stroke="#262626" stroke-width="3.5" x1="803.657" y1="346.044" x2="815.458" y2="369.677"/>
	<line fill="none" stroke="#262626" stroke-width="3.5" x1="783.139" y1="304.96" x2="794.944" y2="328.599"/>
	<line fill="none" stroke="#262626" stroke-width="3.5" x1="832.472" y1="337.804" x2="837.848" y2="363.051"/>
	<line fill="none" stroke="#262626" stroke-width="3.5" x1="823.14" y1="293.988" x2="828.601" y2="319.632"/>
	<line fill="none" stroke="#262626" stroke-width="3.5" x1="812.241" y1="323.833" x2="818.477" y2="341.896"/>
	<line fill="none" stroke="#262626" stroke-width="3.5" x1="964.38" y1="299.416" x2="964.057" y2="276.464"/>
	<line fill="none" stroke="#262626" stroke-width="3.5" x1="965.047" y1="346.659" x2="964.656" y2="318.945"/>
	<line fill="none" stroke="#262626" stroke-width="3.5" x1="949.948" y1="300.049" x2="950.807" y2="319.557"/>
	<path fill="none" stroke="#262626" stroke-width="3.5" d="M1203.915,425.007c0,0-93.196-40.243-223.664-40.243h-0.503
		c-130.467,0-223.663,40.243-223.663,40.243"/>
	<path fill="none" stroke="#262626" stroke-width="3.5" d="M1208.61,413.948c0,0-97.892-48.293-228.359-48.293h-0.503
		c-130.467,0-228.359,48.293-228.359,48.293"/>
	<path fill="none" stroke="#262626" stroke-width="3.5" d="M1223.705,396.17c-116.732-44.614-187.845-49.646-243.454-49.646h-0.503
		c-55.609,0-126.721,5.032-243.454,49.646"/>
	<path fill="none" stroke="#262626" stroke-width="3.5" d="M1187.58,383.104c0,0,27.063-50.509,71.68-44.215"/>
	<line fill="none" stroke="#262626" stroke-width="3.5" x1="1241.484" y1="292.52" x2="1157.188" y2="373.36"/>
	<path fill="none" stroke="#262626" stroke-width="3.5" d="M1316.287,267.361c0,0-28.821-17.504-63.049-26.782"/>
	<path fill="none" stroke="#262626" stroke-width="3.5" d="M1290.122,289.165c0,0-15.975-10.839-38.261-15.985"/>
	<path fill="none" stroke="#262626" stroke-width="3.5" d="M1297.398,283.102c0,0-17.506-12.051-41.154-18.089"/>
	<path fill="none" stroke="#262626" stroke-width="3.5" d="M1239.514,294.408c0,0,21.3,8.471,35.787,18.638"/>
	<path fill="none" stroke="#262626" stroke-width="3.5" d="M1261.753,334.872c-159.774-63.821-244.51-58.287-281.753-58.287
		c-37.244,0-121.979-5.535-281.752,58.287"/>
	<line fill="none" stroke="#262626" stroke-width="3.5" x1="1108.063" y1="256.711" x2="1108.063" y2="360.725"/>
	<line fill="none" stroke="#262626" stroke-width="3.5" x1="1049.194" y1="247.402" x2="1009.193" y2="346.524"/>
	<line fill="none" stroke="#262626" stroke-width="3.5" x1="1116.114" y1="215.703" x2="1048.188" y2="208.156"/>
	<line fill="none" stroke="#262626" stroke-width="3.5" x1="1114.571" y1="226.265" x2="1047.16" y2="219.612"/>
	<line fill="none" stroke="#262626" stroke-width="3.5" x1="1109.07" y1="239.1" x2="1050.2" y2="233.565"/>
	<line fill="none" stroke="#262626" stroke-width="3.5" x1="1089.885" y1="237.297" x2="1085.795" y2="355.83"/>
	<path fill="none" stroke="#262626" stroke-width="3.5" d="M1034.803,348.772c0,0,23.196-78.225,27.222-92.061
		c4.025-13.837,4.367-21.623,4.367-21.623"/>
	<line fill="none" stroke="#262626" stroke-width="3.5" x1="1108.063" y1="259.729" x2="1048.188" y2="249.896"/>
	<path fill="none" stroke="#262626" stroke-width="3.5" d="M1085.795,355.83c2.482-71.951-30.434-76.49-50.992-7.058"/>
	<path fill="none" stroke="#262626" stroke-width="3.5" d="M1087.378,309.954c36.486,6.95,80.944,18.263,135.198,36.57"/>
	<path fill="none" stroke="#262626" stroke-width="3.5" d="M1048.158,303.65c-28.589-3.69-50.811-4.457-68.158-4.457
		c-17.348,0-39.57,0.767-68.158,4.457"/>
	<path fill="none" stroke="#262626" stroke-width="3.5" d="M1086.726,328.846c35.481,6.507,75.621,17.086,115.632,34.205"/>
	<path fill="none" stroke="#262626" stroke-width="3.5" d="M1042.628,322.369c-27.741-3.082-49.83-3.686-62.628-3.686
		c-12.798,0-34.887,0.604-62.627,3.686"/>
	<line fill="none" stroke="#262626" stroke-width="3.5" x1="1191.026" y1="358.376" x2="1171.837" y2="377.904"/>
	<line fill="none" stroke="#262626" stroke-width="3.5" x1="1208.61" y1="341.896" x2="1229.034" y2="322.369"/>
	<line fill="none" stroke="#262626" stroke-width="3.5" x1="1255.09" y1="301.422" x2="1270.992" y2="279.326"/>
	<line fill="none" stroke="#262626" stroke-width="3.5" x1="1156.343" y1="346.044" x2="1144.542" y2="369.677"/>
	<line fill="none" stroke="#262626" stroke-width="3.5" x1="1176.86" y1="304.96" x2="1165.056" y2="328.599"/>
	<line fill="none" stroke="#262626" stroke-width="3.5" x1="1127.529" y1="337.804" x2="1122.152" y2="363.051"/>
	<line fill="none" stroke="#262626" stroke-width="3.5" x1="1136.861" y1="293.988" x2="1131.399" y2="319.632"/>
	<line fill="none" stroke="#262626" stroke-width="3.5" x1="1147.759" y1="323.833" x2="1141.523" y2="341.896"/>
	<line fill="none" stroke="#262626" stroke-width="3.5" x1="995.619" y1="299.416" x2="995.943" y2="276.464"/>
	<line fill="none" stroke="#262626" stroke-width="3.5" x1="994.953" y1="346.659" x2="995.345" y2="318.945"/>
	<line fill="none" stroke="#262626" stroke-width="3.5" x1="1010.052" y1="300.049" x2="1009.193" y2="319.557"/>
	<path fill="#262626" d="M1085.795,355.83c2.482-71.951-30.434-76.49-50.992-7.058h0.002c15.609,1.399,32.525,3.619,51.123,7.083
		L1085.795,355.83z"/>
	<path fill="#262626" d="M925.194,348.772c-15.57,1.396-32.443,3.607-50.987,7.057l-0.001,0.001
		c-2.483-71.951,30.432-76.49,50.992-7.058H925.194z"/>
	<path fill="#262626" d="M700.74,338.889c44.616-6.294,71.68,44.215,71.68,44.215h-0.001c-11.54,3.926-23.568,8.267-36.125,13.066
		L700.74,338.889z"/>
	<path fill="#262626" d="M1223.705,396.17l35.555-57.281c-44.616-6.294-71.68,44.215-71.68,44.215L1223.705,396.17z"/>
</g>
</svg>
